<?xml version="1.0" encoding="UTF-8" standalone="no"?>
<svg
   xmlns:dc="http://purl.org/dc/elements/1.1/"
   xmlns:cc="http://creativecommons.org/ns#"
   xmlns:rdf="http://www.w3.org/1999/02/22-rdf-syntax-ns#"
   xmlns:svg="http://www.w3.org/2000/svg"
   xmlns="http://www.w3.org/2000/svg"
   xmlns:sodipodi="http://sodipodi.sourceforge.net/DTD/sodipodi-0.dtd"
   xmlns:inkscape="http://www.inkscape.org/namespaces/inkscape"
   id="svg"
   version="1.1"
   width="32.8172"
   height="42"
   viewBox="0 0 32.8172 42"
   sodipodi:docname="logo.svg"
   inkscape:version="0.92.4 (5da689c313, 2019-01-14)">
  <metadata
     id="metadata42">
    <rdf:RDF>
      <cc:Work
         rdf:about="">
        <dc:format>image/svg+xml</dc:format>
        <dc:type
           rdf:resource="http://purl.org/dc/dcmitype/StillImage" />
        <dc:title></dc:title>
      </cc:Work>
    </rdf:RDF>
  </metadata>
  <defs
     id="defs40" />
  <sodipodi:namedview
     pagecolor="#ffffff"
     bordercolor="#666666"
     borderopacity="1"
     objecttolerance="10"
     gridtolerance="10"
     guidetolerance="10"
     inkscape:pageopacity="0"
     inkscape:pageshadow="2"
     inkscape:window-width="1920"
     inkscape:window-height="1017"
     id="namedview38"
     showgrid="false"
     inkscape:zoom="2.12"
     inkscape:cx="136.65079"
     inkscape:cy="-53.21374"
     inkscape:window-x="-8"
     inkscape:window-y="-8"
     inkscape:window-maximized="1"
     inkscape:current-layer="svg"
     fit-margin-top="2"
     fit-margin-left="2"
     fit-margin-right="2"
     fit-margin-bottom="2"
     borderlayer="false"
     inkscape:pagecheckerboard="false"
     inkscape:showpageshadow="false"
     showborder="true" />
  <g
     id="svgg"
     transform="matrix(0.11698643,0,0,0.11698643,-6.989211,-2.2115115)">
    <path
       id="path0"
       d="m 83.835,43.328 c -1.499,1.5 -1.484,-0.225 -1.347,150.672 0.136,149.684 0.067,144.192 1.834,146.8 0.545,0.804 0.717,2.292 0.878,7.6 l 0.2,6.6 16.262,0.104 c 20.604,0.133 19.008,0.781 19.389,-7.869 0.153,-3.469 0.428,-5.47 0.886,-6.435 0.606,-1.279 0.68,-6.661 0.863,-62.258 0.224,-68.109 -0.07,-61.658 2.879,-63.183 1.139,-0.589 139.922,-0.881 145.422,-0.306 3.656,0.382 3.352,-5.256 3.324,61.52 -0.026,64.04 -0.059,62.997 2.044,64.823 0.87,0.755 0.933,1.111 0.963,5.406 0.031,4.475 0.596,7.474 1.526,8.092 0.664,0.441 32.42,0.371 33.592,-0.075 1.549,-0.589 1.848,-1.601 2.097,-7.107 0.16,-3.512 0.47,-5.772 0.991,-7.222 1.031,-2.869 1.223,-295.127 0.194,-296.697 -0.855,-1.305 -2.016,-1.384 -20.524,-1.389 -18.53,-0.004 -19.722,0.129 -20.549,2.304 -0.233,0.613 -0.367,23.371 -0.348,59.004 0.017,32.698 -0.122,58.159 -0.32,58.357 -0.402,0.402 -147.979,0.471 -149.621,0.07 -0.588,-0.144 -1.202,-0.459 -1.364,-0.701 -0.162,-0.241 -0.297,-26.653 -0.3,-58.694 -0.006,-56.75 -0.026,-58.28 -0.77,-59.2 L 121.271,42.6 103.029,42.488 84.787,42.376 83.835,43.328 m 36.406,-0.112 c 2.266,0.861 2.133,-2.876 2.146,60.008 0.01,45.939 0.118,58.364 0.513,58.892 0.85,1.137 3.418,1.79 5.532,1.405 2.316,-0.421 142.563,-0.188 144,0.239 2.727,0.812 2.545,4.806 2.768,-60.56 l 0.2,-58.6 1.785,-0.9 c 1.765,-0.89 1.962,-0.9 18.4,-0.898 17.11,0.003 19.252,0.173 20.012,1.593 0.275,0.513 0.374,48.593 0.305,147.483 L 315.8,338.6 l -0.822,1.4 -0.822,1.4 -17.178,0.2 c -19.692,0.229 -19.56,0.248 -20.999,-2.923 -0.737,-1.624 -0.762,-3.575 -0.788,-61.277 -0.024,-54.426 -0.083,-59.739 -0.686,-61.2 -0.481,-1.166 -0.698,-3.198 -0.802,-7.497 -0.13,-5.358 -0.214,-5.934 -0.924,-6.314 -0.535,-0.287 -23.734,-0.417 -73.68,-0.414 l -72.899,0.005 -0.69,1.51 c -0.524,1.149 -0.692,2.627 -0.7,6.183 -0.009,4.226 -0.082,4.696 -0.766,4.913 -1.357,0.431 -1.392,1.776 -1.619,63.014 -0.221,59.567 -0.239,60.627 -1.025,62.2 l -0.8,1.6 H 103 85.4 l -1,-2 -1,-2 -0.11,-145.6 C 83.23,111.72 83.279,45.79 83.4,45.29 c 0.62,-2.561 0.083,-2.49 18.774,-2.49 10.776,0 17.373,0.152 18.067,0.416"
       inkscape:connector-curvature="0"
       style="fill:#b4b4b4;fill-rule:evenodd;stroke:none" />
    <path
       id="path1"
       d="m 83,36.197 c -0.22,0.073 -0.89,0.241 -1.49,0.373 -0.804,0.177 -1.177,0.577 -1.422,1.522 -0.23,0.888 -0.632,1.353 -1.307,1.512 -0.536,0.127 -1.199,0.673 -1.473,1.213 -0.75,1.481 -0.54,318.511 0.212,319.263 0.412,0.413 5.511,0.543 24.7,0.632 l 24.18,0.112 v -1.812 c 0,-1.495 0.129,-1.812 0.738,-1.812 2.429,0 2.251,5.106 2.368,-67.842 l 0.106,-66.158 h 70.394 70.394 v 68.351 c 0,56.028 0.095,68.43 0.526,68.788 0.368,0.305 7.854,0.442 24.772,0.455 26.908,0.02 24.523,0.265 24.649,-2.536 0.031,-0.695 0.438,-1.446 1.042,-1.921 1.915,-1.506 1.851,4.322 1.728,-156.815 L 323,46.444 l -1.357,-1.4 c -1.159,-1.196 -1.357,-1.68 -1.357,-3.315 0,-2.293 -0.998,-3.857 -3.17,-4.969 -1.399,-0.716 -2.619,-0.76 -21.274,-0.76 -21.256,0 -21.71,0.041 -22.101,1.993 -0.173,0.866 -0.481,1.22 -1.091,1.253 -1.843,0.1 -2.052,0.175 -2.104,0.754 -0.029,0.33 -0.074,27.015 -0.1,59.3 L 270.4,158 h -70.395 -70.394 l -0.106,-55.9 c -0.115,-61.27 0.008,-58.179 -2.339,-58.793 -0.623,-0.163 -0.766,-0.566 -0.766,-2.154 0,-1.074 -0.168,-1.953 -0.373,-1.953 -0.205,0 -0.488,-0.363 -0.629,-0.807 -0.731,-2.302 -1.628,-2.396 -22.682,-2.361 C 92.092,36.049 83.22,36.123 83,36.197 m 39.036,7.347 c 0.744,0.92 0.764,2.45 0.77,59.2 0.003,32.041 0.138,58.453 0.3,58.694 0.162,0.242 0.776,0.557 1.364,0.701 1.642,0.401 149.219,0.332 149.621,-0.07 0.198,-0.198 0.337,-25.659 0.32,-58.357 -0.019,-35.633 0.115,-58.391 0.348,-59.004 0.827,-2.175 2.019,-2.308 20.549,-2.304 18.508,0.005 19.669,0.084 20.524,1.389 1.029,1.57 0.837,293.828 -0.194,296.697 -0.521,1.45 -0.831,3.71 -0.991,7.222 -0.249,5.506 -0.548,6.518 -2.097,7.107 -1.172,0.446 -32.928,0.516 -33.592,0.075 -0.93,-0.618 -1.495,-3.617 -1.526,-8.092 -0.03,-4.295 -0.093,-4.651 -0.963,-5.406 -2.103,-1.826 -2.07,-0.783 -2.044,-64.823 0.028,-66.776 0.332,-61.138 -3.324,-61.52 -5.5,-0.575 -144.283,-0.283 -145.422,0.306 -2.949,1.525 -2.655,-4.926 -2.879,63.183 -0.183,55.597 -0.257,60.979 -0.863,62.258 -0.458,0.965 -0.733,2.966 -0.886,6.435 -0.381,8.65 1.215,8.002 -19.389,7.869 L 85.4,355 85.2,348.4 c -0.161,-5.308 -0.333,-6.796 -0.878,-7.6 C 82.555,338.192 82.624,343.684 82.488,194 82.351,43.103 82.336,44.828 83.835,43.328 l 0.952,-0.952 18.242,0.112 18.242,0.112 0.765,0.944"
       inkscape:connector-curvature="0"
       style="fill:#a0a09f;fill-rule:evenodd;stroke:none" />
    <path
       id="path2"
       d="m 84.41,43.59 c -0.434,0.434 -0.889,1.199 -1.01,1.7 -0.121,0.5 -0.17,66.43 -0.11,146.51 l 0.11,145.6 1,2 1,2 h 17.6 17.6 l 0.8,-1.6 c 0.786,-1.573 0.804,-2.633 1.025,-62.2 0.227,-61.238 0.262,-62.583 1.619,-63.014 0.684,-0.217 0.757,-0.687 0.766,-4.913 0.008,-3.556 0.176,-5.034 0.7,-6.183 l 0.69,-1.51 72.899,-0.005 c 49.946,-0.003 73.145,0.127 73.68,0.414 0.71,0.38 0.794,0.956 0.924,6.314 0.104,4.299 0.321,6.331 0.802,7.497 0.603,1.461 0.662,6.774 0.686,61.2 0.026,57.702 0.051,59.653 0.788,61.277 1.439,3.171 1.307,3.152 20.999,2.923 l 17.178,-0.2 0.822,-1.4 0.822,-1.4 0.102,-146.722 c 0.069,-98.89 -0.03,-146.97 -0.305,-147.483 -0.76,-1.42 -2.902,-1.59 -20.012,-1.593 -16.438,-0.002 -16.635,0.008 -18.4,0.898 l -1.785,0.9 -0.2,58.6 c -0.223,65.366 -0.041,61.372 -2.768,60.56 -1.437,-0.427 -141.684,-0.66 -144,-0.239 -2.114,0.385 -4.682,-0.268 -5.532,-1.405 -0.395,-0.528 -0.503,-12.953 -0.513,-58.892 -0.013,-62.884 0.12,-59.147 -2.146,-60.008 C 117.93,42.337 85.323,42.677 84.41,43.59 m 36.826,0.754 c 0.744,0.92 0.764,2.443 0.764,58.92 0,63.802 -0.162,59.783 2.448,60.693 0.913,0.318 22.171,0.443 75.372,0.443 h 74.101 l 0.839,-1.423 0.84,-1.423 v -56.927 c 0,-62.48 -0.113,-59.076 2.001,-60.475 l 1.488,-0.985 17.174,0.117 c 15.649,0.106 17.27,0.179 18.255,0.825 l 1.082,0.709 v 145.92 c 0,161.478 0.201,149.282 -2.472,149.816 -0.675,0.135 -8.572,0.246 -17.547,0.246 h -16.32 l -1.245,-1.048 c -2.596,-2.185 -2.414,2.528 -2.434,-63.032 -0.015,-50.96 -0.102,-59.955 -0.594,-61.32 -0.404,-1.122 -0.578,-3.399 -0.582,-7.62 -0.004,-4.142 -0.156,-6.17 -0.486,-6.5 -0.517,-0.517 -146.903,-0.645 -149.32,-0.13 l -1.2,0.256 -0.257,6.797 c -0.141,3.738 -0.449,7.607 -0.683,8.597 -0.29,1.228 -0.431,20.567 -0.443,60.84 -0.012,42.219 -0.144,59.428 -0.462,60.4 -0.942,2.88 -0.121,2.76 -18.964,2.76 H 85.671 L 84.736,338.9 83.8,337 83.698,191.083 83.597,45.167 84.6,44.164 l 1.003,-1.003 17.434,0.119 17.434,0.12 0.765,0.944"
       inkscape:connector-curvature="0"
       style="fill:#bcbcbc;fill-rule:evenodd;stroke:none" />
    <path
       id="path3"
       d="m 85.798,46.1 c -0.119,0.495 -0.167,66.06 -0.107,145.7 l 0.109,144.8 15.54,0.105 c 9.281,0.062 16.127,-0.054 17,-0.289 l 1.46,-0.393 -0.102,-66.892 c -0.114,-74.053 -0.282,-69.141 2.438,-71.182 L 123.4,197 l 75.249,-0.105 75.249,-0.105 1.951,1.338 c 3.436,2.358 3.123,-4.443 3.27,70.851 0.073,36.949 0.221,67.324 0.33,67.5 0.296,0.479 31.005,0.4 32.391,-0.083 l 1.16,-0.404 -0.1,-43.296 C 312.845,268.883 312.745,204.31 312.677,149.2 312.575,66.145 312.461,48.675 312.01,47.1 l -0.545,-1.9 H 295.54 279.615 l -0.212,0.9 c -0.117,0.495 -0.255,27 -0.308,58.9 -0.106,64.682 0.124,59.741 -2.844,61.149 -2.134,1.013 -153.866,0.807 -154.883,-0.21 -1.442,-1.441 -1.501,-3.397 -1.789,-59.339 -0.277,-53.885 -0.355,-56.854 -1.57,-60.1 l -0.487,-1.3 H 101.768 86.015 l -0.217,0.9"
       inkscape:connector-curvature="0"
       style="fill:#fbfbfb;fill-rule:evenodd;stroke:none" />
    <path
       id="path4"
       d="m 85.048,44.347 c -0.417,0.461 -0.639,1.174 -0.535,1.72 0.172,0.902 0.18,0.899 0.233,-0.087 0.106,-1.998 -0.048,-1.98 17.037,-1.98 15.625,0 18.381,0.187 19.083,1.293 0.177,0.279 0.328,26.517 0.337,58.307 0.016,62.263 -0.051,60.134 1.914,61.349 0.854,0.528 150.9,0.335 151.538,-0.195 2.276,-1.889 2.144,1.715 2.153,-58.838 0.008,-57.169 0.082,-59.968 1.619,-61.216 1.817,-1.476 35.073,-0.929 36.039,0.593 0.367,0.578 0.45,290.832 0.084,292.201 -0.413,1.539 -2.249,1.701 -19.216,1.704 l -16.067,0.002 -1.225,-1.546 -1.224,-1.547 -0.187,-59.953 c -0.103,-32.975 -0.332,-63.255 -0.509,-67.29 l -0.322,-7.335 -1.127,-0.969 -1.127,-0.968 -74.931,0.104 c -72.231,0.1 -74.961,0.131 -75.748,0.843 -1.175,1.064 -1.258,5.033 -1.585,75.861 -0.155,33.55 -0.428,61.293 -0.606,61.652 -0.514,1.031 -2.314,1.139 -19.122,1.144 l -15.845,0.004 -0.644,-1.5 c -0.354,-0.825 -0.539,-1.05 -0.412,-0.5 0.126,0.55 0.486,1.405 0.798,1.9 l 0.567,0.9 h 15.335 c 17.816,0 18.918,-0.088 19.579,-1.559 0.346,-0.77 0.544,-16.894 0.759,-62.041 0.34,-71.437 0.402,-74.398 1.569,-75.454 1.278,-1.157 149.788,-1.17 151.065,-0.013 0.737,0.666 0.828,1.354 1.007,7.6 0.109,3.777 0.38,7.857 0.604,9.067 0.261,1.419 0.416,22.965 0.435,60.683 l 0.029,58.483 1.538,1.617 1.538,1.617 h 15.406 c 18.538,0 19.01,-0.044 19.764,-1.848 0.469,-1.122 0.554,-23.78 0.554,-147.13 V 45.218 l -1.082,-0.709 c -0.986,-0.646 -2.591,-0.719 -18.1,-0.817 L 279,43.584 l -1.2,0.97 -1.2,0.97 -0.2,58.156 c -0.218,63.445 -0.074,59.534 -2.25,60.832 -0.79,0.472 -149.116,0.357 -150.359,-0.116 -2.292,-0.871 -2.191,1.957 -2.191,-61.121 V 45.324 l -0.842,-0.762 C 119.419,43.35 86.132,43.15 85.048,44.347 M 84.198,191.8 c 0,79.42 0.046,111.85 0.102,72.067 0.056,-39.782 0.056,-104.762 0,-144.4 C 84.244,79.83 84.198,112.38 84.198,191.8"
       inkscape:connector-curvature="0"
       style="fill:#d4d4d4;fill-rule:evenodd;stroke:none" />
    <path
       id="path5"
       d="M 101.2,44.8 85.4,45 85.306,190.8 c -0.052,80.19 0.045,146.018 0.214,146.285 0.505,0.794 33.635,0.767 34.975,-0.028 0.053,-0.032 0.188,-30.718 0.3,-68.192 l 0.205,-68.134 1.122,-0.966 1.123,-0.965 h 75.563 75.564 l 1.389,1.219 1.388,1.219 0.245,7.081 c 0.135,3.895 0.372,34.3 0.526,67.567 0.258,55.677 0.333,60.539 0.946,61.152 0.878,0.877 32.451,0.933 34.272,0.06 l 1.062,-0.509 0.101,-143.59 c 0.108,-154.407 0.195,-147.194 -1.8,-147.994 -1.525,-0.611 -33.056,-0.21 -33.701,0.429 -0.526,0.521 -0.625,7.759 -0.8,58.68 l -0.2,58.086 -0.986,1.458 c -0.543,0.801 -1.314,1.662 -1.714,1.912 -1.1,0.686 -151.799,0.612 -152.628,-0.076 -1.689,-1.4 -1.659,-0.382 -1.71,-58.769 -0.047,-54.278 -0.145,-60.268 -1.003,-61.126 -0.888,-0.888 -3.305,-0.992 -18.559,-0.799 m 16.809,1.7 c 1.215,3.246 1.293,6.215 1.57,60.1 0.288,55.942 0.347,57.898 1.789,59.339 1.017,1.017 152.749,1.223 154.883,0.21 2.968,-1.408 2.738,3.533 2.844,-61.149 0.053,-31.9 0.191,-58.405 0.308,-58.9 l 0.212,-0.9 h 15.925 15.925 l 0.545,1.9 c 0.451,1.575 0.565,19.045 0.667,102.1 0.068,55.11 0.168,119.683 0.223,143.496 l 0.1,43.296 -1.16,0.404 c -1.386,0.483 -32.095,0.562 -32.391,0.083 -0.109,-0.176 -0.257,-30.551 -0.33,-67.5 -0.147,-75.294 0.166,-68.493 -3.27,-70.851 l -1.951,-1.338 -75.249,0.105 -75.249,0.105 -1.264,0.949 c -2.72,2.041 -2.552,-2.871 -2.438,71.182 l 0.102,66.892 -1.46,0.393 c -0.873,0.235 -7.719,0.351 -17,0.289 L 85.8,336.6 85.691,191.8 C 85.631,112.16 85.679,46.595 85.798,46.1 l 0.217,-0.9 h 15.753 15.754 l 0.487,1.3"
       inkscape:connector-curvature="0"
       style="fill:#ececec;fill-rule:evenodd;stroke:none" />
    <path
       id="path6"
       d="M 84.6,44.164 83.597,45.167 83.698,191.083 83.8,337 l 0.936,1.9 0.935,1.9 h 16.92 c 18.843,0 18.022,0.12 18.964,-2.76 0.318,-0.972 0.45,-18.181 0.462,-60.4 0.012,-40.273 0.153,-59.612 0.443,-60.84 0.234,-0.99 0.542,-4.859 0.683,-8.597 l 0.257,-6.797 1.2,-0.256 c 2.417,-0.515 148.803,-0.387 149.32,0.13 0.33,0.33 0.482,2.358 0.486,6.5 0.004,4.221 0.178,6.498 0.582,7.62 0.492,1.365 0.579,10.36 0.594,61.32 0.02,65.56 -0.162,60.847 2.434,63.032 l 1.245,1.048 h 16.32 c 8.975,0 16.872,-0.111 17.547,-0.246 2.673,-0.534 2.472,11.662 2.472,-149.816 V 44.818 l -1.082,-0.709 c -0.985,-0.646 -2.606,-0.719 -18.255,-0.825 l -17.174,-0.117 -1.488,0.985 c -2.114,1.399 -2.001,-2.005 -2.001,60.475 v 56.927 l -0.84,1.423 -0.839,1.423 H 199.82 c -53.201,0 -74.459,-0.125 -75.372,-0.443 -2.61,-0.91 -2.448,3.109 -2.448,-60.693 0,-56.477 -0.02,-58 -0.764,-58.92 L 120.471,43.4 103.037,43.28 85.603,43.161 84.6,44.164 m 36.158,0.398 0.842,0.762 v 57.951 c 0,63.078 -0.101,60.25 2.191,61.121 1.243,0.473 149.569,0.588 150.359,0.116 2.176,-1.298 2.032,2.613 2.25,-60.832 l 0.2,-58.156 1.2,-0.97 1.2,-0.97 17.018,0.108 c 15.509,0.098 17.114,0.171 18.1,0.817 l 1.082,0.709 v 145.804 c 0,123.35 -0.085,146.008 -0.554,147.13 -0.754,1.804 -1.226,1.848 -19.764,1.848 h -15.406 l -1.538,-1.617 -1.538,-1.617 -0.029,-58.483 c -0.019,-37.718 -0.174,-59.264 -0.435,-60.683 -0.224,-1.21 -0.495,-5.29 -0.604,-9.067 -0.179,-6.246 -0.27,-6.934 -1.007,-7.6 -1.277,-1.157 -149.787,-1.144 -151.065,0.013 -1.167,1.056 -1.229,4.017 -1.569,75.454 -0.219,45.833 -0.41,61.265 -0.768,62.066 -0.662,1.478 -2.368,1.6 -20.323,1.454 L 85.8,339.8 85,338.2 C 83.754,335.707 83.734,45.799 84.98,44.422 c 1.145,-1.265 34.37,-1.135 35.778,0.14"
       inkscape:connector-curvature="0"
       style="fill:#cccccc;fill-rule:evenodd;stroke:none" />
    <path
       id="path7"
       d="m 85.149,44.7 c -0.491,0.625 -0.479,0.645 0.112,0.183 0.962,-0.751 34.057,-0.526 34.819,0.237 0.42,0.42 0.559,11.388 0.723,56.8 l 0.203,56.28 0.091,-56.2 c 0.05,-30.91 -0.054,-56.428 -0.231,-56.707 -0.965,-1.52 -34.553,-2.078 -35.717,-0.593 m 193.278,0 c -1.537,1.248 -1.611,4.047 -1.619,61.216 -0.009,60.553 0.123,56.949 -2.153,58.838 -0.638,0.53 -150.684,0.723 -151.538,0.195 -0.22,-0.136 -0.754,-0.99 -1.186,-1.898 -0.656,-1.379 -0.744,-1.453 -0.534,-0.451 0.139,0.66 0.695,1.65 1.237,2.2 l 0.984,1 74.891,0.1 c 82.909,0.111 76.178,0.345 77.889,-2.711 l 1.002,-1.789 0.2,-57.932 c 0.196,-56.765 0.216,-57.944 0.976,-58.5 0.998,-0.73 32.106,-0.846 34.167,-0.128 1.435,0.5 1.601,0.962 1.777,4.96 0.122,2.778 0.124,2.773 0.196,-0.6 0.082,-3.897 -0.068,-4.27 -1.941,-4.807 -2.708,-0.777 -33.351,-0.503 -34.348,0.307 M 84.504,191.4 c -0.05,79.64 0.04,145.008 0.202,145.262 0.263,0.414 0.259,-140.763 -0.008,-248.862 -0.056,-22.66 -0.143,23.96 -0.194,103.6 m 38.028,8.757 -1.113,0.958 -0.08,8.342 c -0.054,5.563 0.032,7.677 0.255,6.343 0.185,-1.1 0.352,-4.807 0.371,-8.238 0.033,-5.81 0.093,-6.29 0.877,-7 0.821,-0.743 2.727,-0.765 75.773,-0.866 l 74.931,-0.104 1.127,0.968 1.127,0.969 0.322,7.335 c 0.177,4.035 0.406,34.315 0.509,67.29 l 0.187,59.953 1.224,1.547 1.225,1.546 16.067,-0.002 c 16.967,-0.003 18.803,-0.165 19.216,-1.704 0.388,-1.451 0.274,-1.765 -0.259,-0.711 -0.754,1.489 -1.289,1.534 -18.764,1.577 l -16.273,0.04 -0.827,-1.162 c -0.827,-1.161 -0.827,-1.176 -0.841,-59.3 -0.012,-48.916 -0.106,-58.646 -0.592,-61.338 -0.335,-1.852 -0.582,-5.755 -0.586,-9.264 l -0.008,-6.065 -1.231,-1.035 -1.23,-1.036 h -75.147 -75.147 l -1.113,0.957 m -1.537,75.443 c 0,31.57 0.047,44.485 0.105,28.7 0.058,-15.785 0.058,-41.615 0,-57.4 -0.058,-15.785 -0.105,-2.87 -0.105,28.7 m -0.686,62.075 c -0.247,0.742 -34.709,1.018 -34.709,0.278 0,-0.267 -0.094,-0.392 -0.209,-0.277 -0.116,0.115 -0.096,0.505 0.042,0.867 0.261,0.678 29.638,1.033 33.443,0.404 1.283,-0.212 2.278,-1.126 1.775,-1.629 -0.092,-0.093 -0.246,0.068 -0.342,0.357"
       inkscape:connector-curvature="0"
       style="fill:#dcdcdc;fill-rule:evenodd;stroke:none" />
    <path
       id="path8"
       d="m 85.28,44.88 c -0.372,0.372 -0.458,33.263 -0.381,146.1 L 84.998,336.6 85.199,190.8 85.4,45 101.2,44.793 117,44.586 101.38,44.493 C 89.659,44.423 85.64,44.52 85.28,44.88 m 193.296,0.088 c -0.76,0.556 -0.78,1.735 -0.976,58.5 l -0.2,57.932 -0.871,1.627 c -1.002,1.873 -1.47,2.304 -3.129,2.888 -0.66,0.232 -0.957,0.436 -0.66,0.453 1.124,0.066 3.097,-1.233 4.06,-2.672 l 1,-1.496 0.2,-58.039 c 0.166,-48.181 0.293,-58.15 0.745,-58.695 0.485,-0.584 2.214,-0.669 15.6,-0.766 L 309.4,44.59 294.376,44.495 c -12.453,-0.079 -15.156,0.002 -15.8,0.473 m -159.16,0.394 c 0.54,0.395 0.842,1.257 1.017,2.9 l 0.249,2.338 0.059,-2.126 c 0.066,-2.377 -0.44,-3.674 -1.432,-3.674 -0.566,0 -0.55,0.082 0.107,0.562 m 193.308,-0.217 c 0.288,0.182 0.771,1.125 1.073,2.093 l 0.549,1.762 0.027,-1.471 c 0.027,-1.458 -0.771,-2.735 -1.702,-2.723 -0.321,0.004 -0.304,0.112 0.053,0.339 m 1.874,150.255 c 0,77.44 0.046,109.18 0.102,70.532 0.056,-38.647 0.056,-102.007 0,-140.8 -0.056,-38.792 -0.102,-7.172 -0.102,70.268 m -193.592,-33 c 0.351,2.417 1.382,3.394 3.634,3.443 1.711,0.038 1.751,0.022 0.31,-0.12 -1.902,-0.189 -3.073,-1.237 -3.716,-3.323 l -0.431,-1.4 0.203,1.4 m 1.116,37.365 -1.122,0.964 -0.044,8.936 -0.044,8.935 0.255,-8.744 0.255,-8.745 1.112,-0.955 1.111,-0.956 h 75.147 75.147 l 1.23,1.036 1.231,1.035 0.008,6.065 c 0.004,3.509 0.251,7.412 0.586,9.264 0.486,2.692 0.58,12.422 0.592,61.338 l 0.014,58.139 0.839,1.177 0.839,1.178 16.9,-0.116 c 13.606,-0.093 17.029,-0.223 17.561,-0.665 1.055,-0.876 0.765,-1.242 -0.488,-0.617 -1.867,0.932 -33.453,0.935 -34.385,0.004 -0.613,-0.613 -0.688,-5.475 -0.946,-61.152 -0.154,-33.267 -0.391,-63.672 -0.526,-67.567 l -0.245,-7.081 -1.388,-1.219 -1.389,-1.219 h -75.564 -75.563 l -1.123,0.965 M 120.909,334.4 c 0,0.99 0.078,1.395 0.173,0.9 0.096,-0.495 0.096,-1.305 0,-1.8 -0.095,-0.495 -0.173,-0.09 -0.173,0.9 m -0.509,2.29 c 0,1.093 -34.19,1.48 -34.879,0.395 -0.371,-0.583 -0.415,-0.196 -0.078,0.682 0.251,0.656 29.739,0.991 33.433,0.38 1.329,-0.22 2.274,-1.13 1.733,-1.671 -0.115,-0.115 -0.209,-0.019 -0.209,0.214"
       inkscape:connector-curvature="0"
       style="fill:#e4e4e4;fill-rule:evenodd;stroke:none" />
  </g>
</svg>
