<svg id="svg" version="1.1" width="400" height="400" viewBox="0 0 400 400" xmlns="http://www.w3.org/2000/svg" xmlns:xlink="http://www.w3.org/1999/xlink" ><g id="svgg"><path id="path0" d="M83.835 43.328 C 82.336 44.828,82.351 43.103,82.488 194.000 C 82.624 343.684,82.555 338.192,84.322 340.800 C 84.867 341.604,85.039 343.092,85.200 348.400 L 85.400 355.000 101.662 355.104 C 122.266 355.237,120.670 355.885,121.051 347.235 C 121.204 343.766,121.479 341.765,121.937 340.800 C 122.543 339.521,122.617 334.139,122.800 278.542 C 123.024 210.433,122.730 216.884,125.679 215.359 C 126.818 214.770,265.601 214.478,271.101 215.053 C 274.757 215.435,274.453 209.797,274.425 276.573 C 274.399 340.613,274.366 339.570,276.469 341.396 C 277.339 342.151,277.402 342.507,277.432 346.802 C 277.463 351.277,278.028 354.276,278.958 354.894 C 279.622 355.335,311.378 355.265,312.550 354.819 C 314.099 354.230,314.398 353.218,314.647 347.712 C 314.807 344.200,315.117 341.940,315.638 340.490 C 316.669 337.621,316.861 45.363,315.832 43.793 C 314.977 42.488,313.816 42.409,295.308 42.404 C 276.778 42.400,275.586 42.533,274.759 44.708 C 274.526 45.321,274.392 68.079,274.411 103.712 C 274.428 136.410,274.289 161.871,274.091 162.069 C 273.689 162.471,126.112 162.540,124.470 162.139 C 123.882 161.995,123.268 161.680,123.106 161.438 C 122.944 161.197,122.809 134.785,122.806 102.744 C 122.800 45.994,122.780 44.464,122.036 43.544 L 121.271 42.600 103.029 42.488 L 84.787 42.376 83.835 43.328 M120.241 43.216 C 122.507 44.077,122.374 40.340,122.387 103.224 C 122.397 149.163,122.505 161.588,122.900 162.116 C 123.750 163.253,126.318 163.906,128.432 163.521 C 130.748 163.100,270.995 163.333,272.432 163.760 C 275.159 164.572,274.977 168.566,275.200 103.200 L 275.400 44.600 277.185 43.700 C 278.950 42.810,279.147 42.800,295.585 42.802 C 312.695 42.805,314.837 42.975,315.597 44.395 C 315.872 44.908,315.971 92.988,315.902 191.878 L 315.800 338.600 314.978 340.000 L 314.156 341.400 296.978 341.600 C 277.286 341.829,277.418 341.848,275.979 338.677 C 275.242 337.053,275.217 335.102,275.191 277.400 C 275.167 222.974,275.108 217.661,274.505 216.200 C 274.024 215.034,273.807 213.002,273.703 208.703 C 273.573 203.345,273.489 202.769,272.779 202.389 C 272.244 202.102,249.045 201.972,199.099 201.975 L 126.200 201.980 125.510 203.490 C 124.986 204.639,124.818 206.117,124.810 209.673 C 124.801 213.899,124.728 214.369,124.044 214.586 C 122.687 215.017,122.652 216.362,122.425 277.600 C 122.204 337.167,122.186 338.227,121.400 339.800 L 120.600 341.400 103.000 341.400 L 85.400 341.400 84.400 339.400 L 83.400 337.400 83.290 191.800 C 83.230 111.720,83.279 45.790,83.400 45.290 C 84.020 42.729,83.483 42.800,102.174 42.800 C 112.950 42.800,119.547 42.952,120.241 43.216 " stroke="none" fill="#b4b4b4" fill-rule="evenodd"></path><path id="path1" d="M83.000 36.197 C 82.780 36.270,82.110 36.438,81.510 36.570 C 80.706 36.747,80.333 37.147,80.088 38.092 C 79.858 38.980,79.456 39.445,78.781 39.604 C 78.245 39.731,77.582 40.277,77.308 40.817 C 76.558 42.298,76.768 359.328,77.520 360.080 C 77.932 360.493,83.031 360.623,102.220 360.712 L 126.400 360.824 126.400 359.012 C 126.400 357.517,126.529 357.200,127.138 357.200 C 129.567 357.200,129.389 362.306,129.506 289.358 L 129.612 223.200 200.006 223.200 L 270.400 223.200 270.400 291.551 C 270.400 347.579,270.495 359.981,270.926 360.339 C 271.294 360.644,278.780 360.781,295.698 360.794 C 322.606 360.814,320.221 361.059,320.347 358.258 C 320.378 357.563,320.785 356.812,321.389 356.337 C 323.304 354.831,323.240 360.659,323.117 199.522 L 323.000 46.444 321.643 45.044 C 320.484 43.848,320.286 43.364,320.286 41.729 C 320.286 39.436,319.288 37.872,317.116 36.760 C 315.717 36.044,314.497 36.000,295.842 36.000 C 274.586 36.000,274.132 36.041,273.741 37.993 C 273.568 38.859,273.260 39.213,272.650 39.246 C 270.807 39.346,270.598 39.421,270.546 40.000 C 270.517 40.330,270.472 67.015,270.446 99.300 L 270.400 158.000 200.005 158.000 L 129.611 158.000 129.505 102.100 C 129.390 40.830,129.513 43.921,127.166 43.307 C 126.543 43.144,126.400 42.741,126.400 41.153 C 126.400 40.079,126.232 39.200,126.027 39.200 C 125.822 39.200,125.539 38.837,125.398 38.393 C 124.667 36.091,123.770 35.997,102.716 36.032 C 92.092 36.049,83.220 36.123,83.000 36.197 M122.036 43.544 C 122.780 44.464,122.800 45.994,122.806 102.744 C 122.809 134.785,122.944 161.197,123.106 161.438 C 123.268 161.680,123.882 161.995,124.470 162.139 C 126.112 162.540,273.689 162.471,274.091 162.069 C 274.289 161.871,274.428 136.410,274.411 103.712 C 274.392 68.079,274.526 45.321,274.759 44.708 C 275.586 42.533,276.778 42.400,295.308 42.404 C 313.816 42.409,314.977 42.488,315.832 43.793 C 316.861 45.363,316.669 337.621,315.638 340.490 C 315.117 341.940,314.807 344.200,314.647 347.712 C 314.398 353.218,314.099 354.230,312.550 354.819 C 311.378 355.265,279.622 355.335,278.958 354.894 C 278.028 354.276,277.463 351.277,277.432 346.802 C 277.402 342.507,277.339 342.151,276.469 341.396 C 274.366 339.570,274.399 340.613,274.425 276.573 C 274.453 209.797,274.757 215.435,271.101 215.053 C 265.601 214.478,126.818 214.770,125.679 215.359 C 122.730 216.884,123.024 210.433,122.800 278.542 C 122.617 334.139,122.543 339.521,121.937 340.800 C 121.479 341.765,121.204 343.766,121.051 347.235 C 120.670 355.885,122.266 355.237,101.662 355.104 L 85.400 355.000 85.200 348.400 C 85.039 343.092,84.867 341.604,84.322 340.800 C 82.555 338.192,82.624 343.684,82.488 194.000 C 82.351 43.103,82.336 44.828,83.835 43.328 L 84.787 42.376 103.029 42.488 L 121.271 42.600 122.036 43.544 " stroke="none" fill="#a0a09f" fill-rule="evenodd"></path><path id="path2" d="M84.410 43.590 C 83.976 44.024,83.521 44.789,83.400 45.290 C 83.279 45.790,83.230 111.720,83.290 191.800 L 83.400 337.400 84.400 339.400 L 85.400 341.400 103.000 341.400 L 120.600 341.400 121.400 339.800 C 122.186 338.227,122.204 337.167,122.425 277.600 C 122.652 216.362,122.687 215.017,124.044 214.586 C 124.728 214.369,124.801 213.899,124.810 209.673 C 124.818 206.117,124.986 204.639,125.510 203.490 L 126.200 201.980 199.099 201.975 C 249.045 201.972,272.244 202.102,272.779 202.389 C 273.489 202.769,273.573 203.345,273.703 208.703 C 273.807 213.002,274.024 215.034,274.505 216.200 C 275.108 217.661,275.167 222.974,275.191 277.400 C 275.217 335.102,275.242 337.053,275.979 338.677 C 277.418 341.848,277.286 341.829,296.978 341.600 L 314.156 341.400 314.978 340.000 L 315.800 338.600 315.902 191.878 C 315.971 92.988,315.872 44.908,315.597 44.395 C 314.837 42.975,312.695 42.805,295.585 42.802 C 279.147 42.800,278.950 42.810,277.185 43.700 L 275.400 44.600 275.200 103.200 C 274.977 168.566,275.159 164.572,272.432 163.760 C 270.995 163.333,130.748 163.100,128.432 163.521 C 126.318 163.906,123.750 163.253,122.900 162.116 C 122.505 161.588,122.397 149.163,122.387 103.224 C 122.374 40.340,122.507 44.077,120.241 43.216 C 117.930 42.337,85.323 42.677,84.410 43.590 M121.236 44.344 C 121.980 45.264,122.000 46.787,122.000 103.264 C 122.000 167.066,121.838 163.047,124.448 163.957 C 125.361 164.275,146.619 164.400,199.820 164.400 L 273.921 164.400 274.760 162.977 L 275.600 161.554 275.600 104.627 C 275.600 42.147,275.487 45.551,277.601 44.152 L 279.089 43.167 296.263 43.284 C 311.912 43.390,313.533 43.463,314.518 44.109 L 315.600 44.818 315.600 190.738 C 315.600 352.216,315.801 340.020,313.128 340.554 C 312.453 340.689,304.556 340.800,295.581 340.800 L 279.261 340.800 278.016 339.752 C 275.420 337.567,275.602 342.280,275.582 276.720 C 275.567 225.760,275.480 216.765,274.988 215.400 C 274.584 214.278,274.410 212.001,274.406 207.780 C 274.402 203.638,274.250 201.610,273.920 201.280 C 273.403 200.763,127.017 200.635,124.600 201.150 L 123.400 201.406 123.143 208.203 C 123.002 211.941,122.694 215.810,122.460 216.800 C 122.170 218.028,122.029 237.367,122.017 277.640 C 122.005 319.859,121.873 337.068,121.555 338.040 C 120.613 340.920,121.434 340.800,102.591 340.800 L 85.671 340.800 84.736 338.900 L 83.800 337.000 83.698 191.083 L 83.597 45.167 84.600 44.164 L 85.603 43.161 103.037 43.280 L 120.471 43.400 121.236 44.344 " stroke="none" fill="#bcbcbc" fill-rule="evenodd"></path><path id="path3" d="M85.798 46.100 C 85.679 46.595,85.631 112.160,85.691 191.800 L 85.800 336.600 101.340 336.705 C 110.621 336.767,117.467 336.651,118.340 336.416 L 119.800 336.023 119.698 269.131 C 119.584 195.078,119.416 199.990,122.136 197.949 L 123.400 197.000 198.649 196.895 L 273.898 196.790 275.849 198.128 C 279.285 200.486,278.972 193.685,279.119 268.979 C 279.192 305.928,279.340 336.303,279.449 336.479 C 279.745 336.958,310.454 336.879,311.840 336.396 L 313.000 335.992 312.900 292.696 C 312.845 268.883,312.745 204.310,312.677 149.200 C 312.575 66.145,312.461 48.675,312.010 47.100 L 311.465 45.200 295.540 45.200 L 279.615 45.200 279.403 46.100 C 279.286 46.595,279.148 73.100,279.095 105.000 C 278.989 169.682,279.219 164.741,276.251 166.149 C 274.117 167.162,122.385 166.956,121.368 165.939 C 119.926 164.498,119.867 162.542,119.579 106.600 C 119.302 52.715,119.224 49.746,118.009 46.500 L 117.522 45.200 101.768 45.200 L 86.015 45.200 85.798 46.100 " stroke="none" fill="#fbfbfb" fill-rule="evenodd"></path><path id="path4" d="M85.048 44.347 C 84.631 44.808,84.409 45.521,84.513 46.067 C 84.685 46.969,84.693 46.966,84.746 45.980 C 84.852 43.982,84.698 44.000,101.783 44.000 C 117.408 44.000,120.164 44.187,120.866 45.293 C 121.043 45.572,121.194 71.810,121.203 103.600 C 121.219 165.863,121.152 163.734,123.117 164.949 C 123.971 165.477,274.017 165.284,274.655 164.754 C 276.931 162.865,276.799 166.469,276.808 105.916 C 276.816 48.747,276.890 45.948,278.427 44.700 C 280.244 43.224,313.500 43.771,314.466 45.293 C 314.833 45.871,314.916 336.125,314.550 337.494 C 314.137 339.033,312.301 339.195,295.334 339.198 L 279.267 339.200 278.042 337.654 L 276.818 336.107 276.631 276.154 C 276.528 243.179,276.299 212.899,276.122 208.864 L 275.800 201.529 274.673 200.560 L 273.546 199.592 198.615 199.696 C 126.384 199.796,123.654 199.827,122.867 200.539 C 121.692 201.603,121.609 205.572,121.282 276.400 C 121.127 309.950,120.854 337.693,120.676 338.052 C 120.162 339.083,118.362 339.191,101.554 339.196 L 85.709 339.200 85.065 337.700 C 84.711 336.875,84.526 336.650,84.653 337.200 C 84.779 337.750,85.139 338.605,85.451 339.100 L 86.018 340.000 101.353 340.000 C 119.169 340.000,120.271 339.912,120.932 338.441 C 121.278 337.671,121.476 321.547,121.691 276.400 C 122.031 204.963,122.093 202.002,123.260 200.946 C 124.538 199.789,273.048 199.776,274.325 200.933 C 275.062 201.599,275.153 202.287,275.332 208.533 C 275.441 212.310,275.712 216.390,275.936 217.600 C 276.197 219.019,276.352 240.565,276.371 278.283 L 276.400 336.766 277.938 338.383 L 279.476 340.000 294.882 340.000 C 313.420 340.000,313.892 339.956,314.646 338.152 C 315.115 337.030,315.200 314.372,315.200 191.022 L 315.200 45.218 314.118 44.509 C 313.132 43.863,311.527 43.790,296.018 43.692 L 279.000 43.584 277.800 44.554 L 276.600 45.524 276.400 103.680 C 276.182 167.125,276.326 163.214,274.150 164.512 C 273.360 164.984,125.034 164.869,123.791 164.396 C 121.499 163.525,121.600 166.353,121.600 103.275 L 121.600 45.324 120.758 44.562 C 119.419 43.350,86.132 43.150,85.048 44.347 M84.198 191.800 C 84.198 271.220,84.244 303.650,84.300 263.867 C 84.356 224.085,84.356 159.105,84.300 119.467 C 84.244 79.830,84.198 112.380,84.198 191.800 " stroke="none" fill="#d4d4d4" fill-rule="evenodd"></path><path id="path5" d="M101.200 44.800 L 85.400 45.000 85.306 190.800 C 85.254 270.990,85.351 336.818,85.520 337.085 C 86.025 337.879,119.155 337.852,120.495 337.057 C 120.548 337.025,120.683 306.339,120.795 268.865 L 121.000 200.731 122.122 199.765 L 123.245 198.800 198.808 198.800 L 274.372 198.800 275.761 200.019 L 277.149 201.238 277.394 208.319 C 277.529 212.214,277.766 242.619,277.920 275.886 C 278.178 331.563,278.253 336.425,278.866 337.038 C 279.744 337.915,311.317 337.971,313.138 337.098 L 314.200 336.589 314.301 192.999 C 314.409 38.592,314.496 45.805,312.501 45.005 C 310.976 44.394,279.445 44.795,278.800 45.434 C 278.274 45.955,278.175 53.193,278.000 104.114 L 277.800 162.200 276.814 163.658 C 276.271 164.459,275.500 165.320,275.100 165.570 C 274.000 166.256,123.301 166.182,122.472 165.494 C 120.783 164.094,120.813 165.112,120.762 106.725 C 120.715 52.447,120.617 46.457,119.759 45.599 C 118.871 44.711,116.454 44.607,101.200 44.800 M118.009 46.500 C 119.224 49.746,119.302 52.715,119.579 106.600 C 119.867 162.542,119.926 164.498,121.368 165.939 C 122.385 166.956,274.117 167.162,276.251 166.149 C 279.219 164.741,278.989 169.682,279.095 105.000 C 279.148 73.100,279.286 46.595,279.403 46.100 L 279.615 45.200 295.540 45.200 L 311.465 45.200 312.010 47.100 C 312.461 48.675,312.575 66.145,312.677 149.200 C 312.745 204.310,312.845 268.883,312.900 292.696 L 313.000 335.992 311.840 336.396 C 310.454 336.879,279.745 336.958,279.449 336.479 C 279.340 336.303,279.192 305.928,279.119 268.979 C 278.972 193.685,279.285 200.486,275.849 198.128 L 273.898 196.790 198.649 196.895 L 123.400 197.000 122.136 197.949 C 119.416 199.990,119.584 195.078,119.698 269.131 L 119.800 336.023 118.340 336.416 C 117.467 336.651,110.621 336.767,101.340 336.705 L 85.800 336.600 85.691 191.800 C 85.631 112.160,85.679 46.595,85.798 46.100 L 86.015 45.200 101.768 45.200 L 117.522 45.200 118.009 46.500 " stroke="none" fill="#ececec" fill-rule="evenodd"></path><path id="path6" d="M84.600 44.164 L 83.597 45.167 83.698 191.083 L 83.800 337.000 84.736 338.900 L 85.671 340.800 102.591 340.800 C 121.434 340.800,120.613 340.920,121.555 338.040 C 121.873 337.068,122.005 319.859,122.017 277.640 C 122.029 237.367,122.170 218.028,122.460 216.800 C 122.694 215.810,123.002 211.941,123.143 208.203 L 123.400 201.406 124.600 201.150 C 127.017 200.635,273.403 200.763,273.920 201.280 C 274.250 201.610,274.402 203.638,274.406 207.780 C 274.410 212.001,274.584 214.278,274.988 215.400 C 275.480 216.765,275.567 225.760,275.582 276.720 C 275.602 342.280,275.420 337.567,278.016 339.752 L 279.261 340.800 295.581 340.800 C 304.556 340.800,312.453 340.689,313.128 340.554 C 315.801 340.020,315.600 352.216,315.600 190.738 L 315.600 44.818 314.518 44.109 C 313.533 43.463,311.912 43.390,296.263 43.284 L 279.089 43.167 277.601 44.152 C 275.487 45.551,275.600 42.147,275.600 104.627 L 275.600 161.554 274.760 162.977 L 273.921 164.400 199.820 164.400 C 146.619 164.400,125.361 164.275,124.448 163.957 C 121.838 163.047,122.000 167.066,122.000 103.264 C 122.000 46.787,121.980 45.264,121.236 44.344 L 120.471 43.400 103.037 43.280 L 85.603 43.161 84.600 44.164 M120.758 44.562 L 121.600 45.324 121.600 103.275 C 121.600 166.353,121.499 163.525,123.791 164.396 C 125.034 164.869,273.360 164.984,274.150 164.512 C 276.326 163.214,276.182 167.125,276.400 103.680 L 276.600 45.524 277.800 44.554 L 279.000 43.584 296.018 43.692 C 311.527 43.790,313.132 43.863,314.118 44.509 L 315.200 45.218 315.200 191.022 C 315.200 314.372,315.115 337.030,314.646 338.152 C 313.892 339.956,313.420 340.000,294.882 340.000 L 279.476 340.000 277.938 338.383 L 276.400 336.766 276.371 278.283 C 276.352 240.565,276.197 219.019,275.936 217.600 C 275.712 216.390,275.441 212.310,275.332 208.533 C 275.153 202.287,275.062 201.599,274.325 200.933 C 273.048 199.776,124.538 199.789,123.260 200.946 C 122.093 202.002,122.031 204.963,121.691 276.400 C 121.472 322.233,121.281 337.665,120.923 338.466 C 120.261 339.944,118.555 340.066,100.600 339.920 L 85.800 339.800 85.000 338.200 C 83.754 335.707,83.734 45.799,84.980 44.422 C 86.125 43.157,119.350 43.287,120.758 44.562 " stroke="none" fill="#cccccc" fill-rule="evenodd"></path><path id="path7" d="M85.149 44.700 C 84.658 45.325,84.670 45.345,85.261 44.883 C 86.223 44.132,119.318 44.357,120.080 45.120 C 120.500 45.540,120.639 56.508,120.803 101.920 L 121.006 158.200 121.097 102.000 C 121.147 71.090,121.043 45.572,120.866 45.293 C 119.901 43.773,86.313 43.215,85.149 44.700 M278.427 44.700 C 276.890 45.948,276.816 48.747,276.808 105.916 C 276.799 166.469,276.931 162.865,274.655 164.754 C 274.017 165.284,123.971 165.477,123.117 164.949 C 122.897 164.813,122.363 163.959,121.931 163.051 C 121.275 161.672,121.187 161.598,121.397 162.600 C 121.536 163.260,122.092 164.250,122.634 164.800 L 123.618 165.800 198.509 165.900 C 281.418 166.011,274.687 166.245,276.398 163.189 L 277.400 161.400 277.600 103.468 C 277.796 46.703,277.816 45.524,278.576 44.968 C 279.574 44.238,310.682 44.122,312.743 44.840 C 314.178 45.340,314.344 45.802,314.520 49.800 C 314.642 52.578,314.644 52.573,314.716 49.200 C 314.798 45.303,314.648 44.930,312.775 44.393 C 310.067 43.616,279.424 43.890,278.427 44.700 M84.504 191.400 C 84.454 271.040,84.544 336.408,84.706 336.662 C 84.969 337.076,84.965 195.899,84.698 87.800 C 84.642 65.140,84.555 111.760,84.504 191.400 M122.532 200.157 L 121.419 201.115 121.339 209.457 C 121.285 215.020,121.371 217.134,121.594 215.800 C 121.779 214.700,121.946 210.993,121.965 207.562 C 121.998 201.752,122.058 201.272,122.842 200.562 C 123.663 199.819,125.569 199.797,198.615 199.696 L 273.546 199.592 274.673 200.560 L 275.800 201.529 276.122 208.864 C 276.299 212.899,276.528 243.179,276.631 276.154 L 276.818 336.107 278.042 337.654 L 279.267 339.200 295.334 339.198 C 312.301 339.195,314.137 339.033,314.550 337.494 C 314.938 336.043,314.824 335.729,314.291 336.783 C 313.537 338.272,313.002 338.317,295.527 338.360 L 279.254 338.400 278.427 337.238 C 277.600 336.077,277.600 336.062,277.586 277.938 C 277.574 229.022,277.480 219.292,276.994 216.600 C 276.659 214.748,276.412 210.845,276.408 207.336 L 276.400 201.271 275.169 200.236 L 273.939 199.200 198.792 199.200 L 123.645 199.200 122.532 200.157 M120.995 275.600 C 120.995 307.170,121.042 320.085,121.100 304.300 C 121.158 288.515,121.158 262.685,121.100 246.900 C 121.042 231.115,120.995 244.030,120.995 275.600 M120.309 337.675 C 120.062 338.417,85.600 338.693,85.600 337.953 C 85.600 337.686,85.506 337.561,85.391 337.676 C 85.275 337.791,85.295 338.181,85.433 338.543 C 85.694 339.221,115.071 339.576,118.876 338.947 C 120.159 338.735,121.154 337.821,120.651 337.318 C 120.559 337.225,120.405 337.386,120.309 337.675 " stroke="none" fill="#dcdcdc" fill-rule="evenodd"></path><path id="path8" d="M85.280 44.880 C 84.908 45.252,84.822 78.143,84.899 190.980 L 84.998 336.600 85.199 190.800 L 85.400 45.000 101.200 44.793 L 117.000 44.586 101.380 44.493 C 89.659 44.423,85.640 44.520,85.280 44.880 M278.576 44.968 C 277.816 45.524,277.796 46.703,277.600 103.468 L 277.400 161.400 276.529 163.027 C 275.527 164.900,275.059 165.331,273.400 165.915 C 272.740 166.147,272.443 166.351,272.740 166.368 C 273.864 166.434,275.837 165.135,276.800 163.696 L 277.800 162.200 278.000 104.161 C 278.166 55.980,278.293 46.011,278.745 45.466 C 279.230 44.882,280.959 44.797,294.345 44.700 L 309.400 44.590 294.376 44.495 C 281.923 44.416,279.220 44.497,278.576 44.968 M119.416 45.362 C 119.956 45.757,120.258 46.619,120.433 48.262 L 120.682 50.600 120.741 48.474 C 120.807 46.097,120.301 44.800,119.309 44.800 C 118.743 44.800,118.759 44.882,119.416 45.362 M312.724 45.145 C 313.012 45.327,313.495 46.270,313.797 47.238 L 314.346 49.000 314.373 47.529 C 314.400 46.071,313.602 44.794,312.671 44.806 C 312.350 44.810,312.367 44.918,312.724 45.145 M314.598 195.400 C 314.598 272.840,314.644 304.580,314.700 265.932 C 314.756 227.285,314.756 163.925,314.700 125.132 C 314.644 86.340,314.598 117.960,314.598 195.400 M121.006 162.400 C 121.357 164.817,122.388 165.794,124.640 165.843 C 126.351 165.881,126.391 165.865,124.950 165.723 C 123.048 165.534,121.877 164.486,121.234 162.400 L 120.803 161.000 121.006 162.400 M122.122 199.765 L 121.000 200.729 120.956 209.665 L 120.912 218.600 121.167 209.856 L 121.422 201.111 122.534 200.156 L 123.645 199.200 198.792 199.200 L 273.939 199.200 275.169 200.236 L 276.400 201.271 276.408 207.336 C 276.412 210.845,276.659 214.748,276.994 216.600 C 277.480 219.292,277.574 229.022,277.586 277.938 L 277.600 336.077 278.439 337.254 L 279.278 338.432 296.178 338.316 C 309.784 338.223,313.207 338.093,313.739 337.651 C 314.794 336.775,314.504 336.409,313.251 337.034 C 311.384 337.966,279.798 337.969,278.866 337.038 C 278.253 336.425,278.178 331.563,277.920 275.886 C 277.766 242.619,277.529 212.214,277.394 208.319 L 277.149 201.238 275.761 200.019 L 274.372 198.800 198.808 198.800 L 123.245 198.800 122.122 199.765 M120.909 334.400 C 120.909 335.390,120.987 335.795,121.082 335.300 C 121.178 334.805,121.178 333.995,121.082 333.500 C 120.987 333.005,120.909 333.410,120.909 334.400 M120.400 336.690 C 120.400 337.783,86.210 338.170,85.521 337.085 C 85.150 336.502,85.106 336.889,85.443 337.767 C 85.694 338.423,115.182 338.758,118.876 338.147 C 120.205 337.927,121.150 337.017,120.609 336.476 C 120.494 336.361,120.400 336.457,120.400 336.690 " stroke="none" fill="#e4e4e4" fill-rule="evenodd"></path></g></svg>